<svg id="visual" viewBox="0 0 960 540" width="960" height="540" xmlns="http://www.w3.org/2000/svg" xmlns:xlink="http://www.w3.org/1999/xlink" version="1.1"><rect x="0" y="0" width="960" height="540" fill="#1d1d1d"></rect><defs><linearGradient id="grad1_0" x1="43.8%" y1="0%" x2="100%" y2="100%"><stop offset="14.444444444444446%" stop-color="#1db954" stop-opacity="1"></stop><stop offset="85.55555555555554%" stop-color="#1db954" stop-opacity="1"></stop></linearGradient></defs><defs><linearGradient id="grad1_1" x1="43.8%" y1="0%" x2="100%" y2="100%"><stop offset="14.444444444444446%" stop-color="#1db954" stop-opacity="1"></stop><stop offset="85.55555555555554%" stop-color="#2a9749" stop-opacity="1"></stop></linearGradient></defs><defs><linearGradient id="grad1_2" x1="43.8%" y1="0%" x2="100%" y2="100%"><stop offset="14.444444444444446%" stop-color="#2d763e" stop-opacity="1"></stop><stop offset="85.55555555555554%" stop-color="#2a9749" stop-opacity="1"></stop></linearGradient></defs><defs><linearGradient id="grad1_3" x1="43.8%" y1="0%" x2="100%" y2="100%"><stop offset="14.444444444444446%" stop-color="#2d763e" stop-opacity="1"></stop><stop offset="85.55555555555554%" stop-color="#2b5733" stop-opacity="1"></stop></linearGradient></defs><defs><linearGradient id="grad1_4" x1="43.8%" y1="0%" x2="100%" y2="100%"><stop offset="14.444444444444446%" stop-color="#263928" stop-opacity="1"></stop><stop offset="85.55555555555554%" stop-color="#2b5733" stop-opacity="1"></stop></linearGradient></defs><defs><linearGradient id="grad1_5" x1="43.8%" y1="0%" x2="100%" y2="100%"><stop offset="14.444444444444446%" stop-color="#263928" stop-opacity="1"></stop><stop offset="85.55555555555554%" stop-color="#1d1d1d" stop-opacity="1"></stop></linearGradient></defs><defs><linearGradient id="grad2_0" x1="0%" y1="0%" x2="56.3%" y2="100%"><stop offset="14.444444444444446%" stop-color="#1db954" stop-opacity="1"></stop><stop offset="85.55555555555554%" stop-color="#1db954" stop-opacity="1"></stop></linearGradient></defs><defs><linearGradient id="grad2_1" x1="0%" y1="0%" x2="56.3%" y2="100%"><stop offset="14.444444444444446%" stop-color="#2a9749" stop-opacity="1"></stop><stop offset="85.55555555555554%" stop-color="#1db954" stop-opacity="1"></stop></linearGradient></defs><defs><linearGradient id="grad2_2" x1="0%" y1="0%" x2="56.3%" y2="100%"><stop offset="14.444444444444446%" stop-color="#2a9749" stop-opacity="1"></stop><stop offset="85.55555555555554%" stop-color="#2d763e" stop-opacity="1"></stop></linearGradient></defs><defs><linearGradient id="grad2_3" x1="0%" y1="0%" x2="56.3%" y2="100%"><stop offset="14.444444444444446%" stop-color="#2b5733" stop-opacity="1"></stop><stop offset="85.55555555555554%" stop-color="#2d763e" stop-opacity="1"></stop></linearGradient></defs><defs><linearGradient id="grad2_4" x1="0%" y1="0%" x2="56.3%" y2="100%"><stop offset="14.444444444444446%" stop-color="#2b5733" stop-opacity="1"></stop><stop offset="85.55555555555554%" stop-color="#263928" stop-opacity="1"></stop></linearGradient></defs><defs><linearGradient id="grad2_5" x1="0%" y1="0%" x2="56.3%" y2="100%"><stop offset="14.444444444444446%" stop-color="#1d1d1d" stop-opacity="1"></stop><stop offset="85.55555555555554%" stop-color="#263928" stop-opacity="1"></stop></linearGradient></defs><g transform="translate(960, 0)"><path d="M0 324C-30.2 307.6 -60.4 291.1 -90.5 278.7C-120.7 266.2 -150.7 257.8 -175.2 241.1C-199.6 224.4 -218.4 199.5 -241.9 175.7C-265.4 152 -293.7 129.2 -308.1 100.1C-322.6 71 -323.3 35.5 -324 0L0 0Z" fill="#222b23"></path><path d="M0 270C-25.2 256.3 -50.3 242.6 -75.5 232.2C-100.6 221.8 -125.6 214.8 -146 200.9C-166.3 187 -182 166.3 -201.6 146.5C-221.2 126.6 -244.7 107.7 -256.8 83.4C-268.8 59.2 -269.4 29.6 -270 0L0 0Z" fill="#29482e"></path><path d="M0 216C-20.1 205 -40.3 194.1 -60.4 185.8C-80.4 177.5 -100.5 171.8 -116.8 160.7C-133.1 149.6 -145.6 133 -161.3 117.2C-176.9 101.3 -195.8 86.2 -205.4 66.7C-215.1 47.3 -215.5 23.7 -216 0L0 0Z" fill="#2d6639"></path><path d="M0 162C-15.1 153.8 -30.2 145.6 -45.3 139.3C-60.3 133.1 -75.4 128.9 -87.6 120.5C-99.8 112.2 -109.2 99.8 -120.9 87.9C-132.7 76 -146.8 64.6 -154.1 50.1C-161.3 35.5 -161.7 17.8 -162 0L0 0Z" fill="#2c8644"></path><path d="M0 108C-10.1 102.5 -20.1 97 -30.2 92.9C-40.2 88.7 -50.2 85.9 -58.4 80.4C-66.5 74.8 -72.8 66.5 -80.6 58.6C-88.5 50.7 -97.9 43.1 -102.7 33.4C-107.5 23.7 -107.8 11.8 -108 0L0 0Z" fill="#25a84f"></path><path d="M0 54C-5 51.3 -10.1 48.5 -15.1 46.4C-20.1 44.4 -25.1 43 -29.2 40.2C-33.3 37.4 -36.4 33.3 -40.3 29.3C-44.2 25.3 -48.9 21.5 -51.4 16.7C-53.8 11.8 -53.9 5.9 -54 0L0 0Z" fill="#1db954"></path></g><g transform="translate(0, 540)"><path d="M0 -324C31 -309.8 62 -295.6 92.4 -284.4C122.7 -273.1 152.4 -264.8 182.2 -250.8C212 -236.7 241.9 -216.9 262.1 -190.4C282.3 -164 292.8 -130.8 301.5 -98C310.2 -65.1 317.1 -32.6 324 0L0 0Z" fill="#222b23"></path><path d="M0 -270C25.9 -258.2 51.7 -246.3 77 -237C102.3 -227.6 127 -220.7 151.8 -209C176.7 -197.3 201.6 -180.8 218.4 -158.7C235.3 -136.6 244 -109 251.2 -81.6C258.5 -54.3 264.2 -27.1 270 0L0 0Z" fill="#29482e"></path><path d="M0 -216C20.7 -206.5 41.4 -197.1 61.6 -189.6C81.8 -182.1 101.6 -176.6 121.5 -167.2C141.3 -157.8 161.3 -144.6 174.7 -127C188.2 -109.3 195.2 -87.2 201 -65.3C206.8 -43.4 211.4 -21.7 216 0L0 0Z" fill="#2d6639"></path><path d="M0 -162C15.5 -154.9 31 -147.8 46.2 -142.2C61.4 -136.6 76.2 -132.4 91.1 -125.4C106 -118.4 121 -108.5 131.1 -95.2C141.2 -82 146.4 -65.4 150.7 -49C155.1 -32.6 158.5 -16.3 162 0L0 0Z" fill="#2c8644"></path><path d="M0 -108C10.3 -103.3 20.7 -98.5 30.8 -94.8C40.9 -91 50.8 -88.3 60.7 -83.6C70.7 -78.9 80.6 -72.3 87.4 -63.5C94.1 -54.7 97.6 -43.6 100.5 -32.7C103.4 -21.7 105.7 -10.9 108 0L0 0Z" fill="#25a84f"></path><path d="M0 -54C5.2 -51.6 10.3 -49.3 15.4 -47.4C20.5 -45.5 25.4 -44.1 30.4 -41.8C35.3 -39.5 40.3 -36.2 43.7 -31.7C47.1 -27.3 48.8 -21.8 50.2 -16.3C51.7 -10.9 52.8 -5.4 54 0L0 0Z" fill="#1db954"></path></g></svg>