<svg id="visual" viewBox="0 0 900 600" width="900" height="600" xmlns="http://www.w3.org/2000/svg" xmlns:xlink="http://www.w3.org/1999/xlink" version="1.1"><path d="M0 434L13.7 434.5C27.3 435 54.7 436 82 441.7C109.3 447.3 136.7 457.7 163.8 460.5C191 463.3 218 458.7 245.2 447.2C272.3 435.7 299.7 417.3 327 416.5C354.3 415.7 381.7 432.3 409 445C436.3 457.7 463.7 466.3 491 461.5C518.3 456.7 545.7 438.3 573 427C600.3 415.7 627.7 411.3 654.8 415C682 418.7 709 430.3 736.2 437.3C763.3 444.3 790.7 446.7 818 444.3C845.3 442 872.7 435 886.3 431.5L900 428L900 601L886.3 601C872.7 601 845.3 601 818 601C790.7 601 763.3 601 736.2 601C709 601 682 601 654.8 601C627.7 601 600.3 601 573 601C545.7 601 518.3 601 491 601C463.7 601 436.3 601 409 601C381.7 601 354.3 601 327 601C299.7 601 272.3 601 245.2 601C218 601 191 601 163.8 601C136.7 601 109.3 601 82 601C54.7 601 27.3 601 13.7 601L0 601Z" fill="#14a76c"></path><path d="M0 466L13.7 462C27.3 458 54.7 450 82 445.7C109.3 441.3 136.7 440.7 163.8 449.8C191 459 218 478 245.2 477.7C272.3 477.3 299.7 457.7 327 454.7C354.3 451.7 381.7 465.3 409 468.7C436.3 472 463.7 465 491 467.7C518.3 470.3 545.7 482.7 573 482.8C600.3 483 627.7 471 654.8 469.7C682 468.3 709 477.7 736.2 475.2C763.3 472.7 790.7 458.3 818 455.2C845.3 452 872.7 460 886.3 464L900 468L900 601L886.3 601C872.7 601 845.3 601 818 601C790.7 601 763.3 601 736.2 601C709 601 682 601 654.8 601C627.7 601 600.3 601 573 601C545.7 601 518.3 601 491 601C463.7 601 436.3 601 409 601C381.7 601 354.3 601 327 601C299.7 601 272.3 601 245.2 601C218 601 191 601 163.8 601C136.7 601 109.3 601 82 601C54.7 601 27.3 601 13.7 601L0 601Z" fill="#207e53"></path><path d="M0 503L13.7 504C27.3 505 54.7 507 82 506C109.3 505 136.7 501 163.8 502.7C191 504.3 218 511.7 245.2 511.3C272.3 511 299.7 503 327 497.5C354.3 492 381.7 489 409 485C436.3 481 463.7 476 491 481.8C518.3 487.7 545.7 504.3 573 511.8C600.3 519.3 627.7 517.7 654.8 509.2C682 500.7 709 485.3 736.2 486.3C763.3 487.3 790.7 504.7 818 510C845.3 515.3 872.7 508.7 886.3 505.3L900 502L900 601L886.3 601C872.7 601 845.3 601 818 601C790.7 601 763.3 601 736.2 601C709 601 682 601 654.8 601C627.7 601 600.3 601 573 601C545.7 601 518.3 601 491 601C463.7 601 436.3 601 409 601C381.7 601 354.3 601 327 601C299.7 601 272.3 601 245.2 601C218 601 191 601 163.8 601C136.7 601 109.3 601 82 601C54.7 601 27.3 601 13.7 601L0 601Z" fill="#21573c"></path><path d="M0 525L13.7 521.8C27.3 518.7 54.7 512.3 82 516.2C109.3 520 136.7 534 163.8 538.5C191 543 218 538 245.2 531.3C272.3 524.7 299.7 516.3 327 516.2C354.3 516 381.7 524 409 526.8C436.3 529.7 463.7 527.3 491 529.5C518.3 531.7 545.7 538.3 573 537.5C600.3 536.7 627.7 528.3 654.8 525.8C682 523.3 709 526.7 736.2 524.7C763.3 522.7 790.7 515.3 818 514C845.3 512.7 872.7 517.3 886.3 519.7L900 522L900 601L886.3 601C872.7 601 845.3 601 818 601C790.7 601 763.3 601 736.2 601C709 601 682 601 654.8 601C627.7 601 600.3 601 573 601C545.7 601 518.3 601 491 601C463.7 601 436.3 601 409 601C381.7 601 354.3 601 327 601C299.7 601 272.3 601 245.2 601C218 601 191 601 163.8 601C136.7 601 109.3 601 82 601C54.7 601 27.3 601 13.7 601L0 601Z" fill="#1c3326"></path><path d="M0 556L13.7 555.3C27.3 554.7 54.7 553.3 82 552.7C109.3 552 136.7 552 163.8 555.7C191 559.3 218 566.7 245.2 568.2C272.3 569.7 299.7 565.3 327 563.7C354.3 562 381.7 563 409 564.8C436.3 566.7 463.7 569.3 491 570.5C518.3 571.7 545.7 571.3 573 566.7C600.3 562 627.7 553 654.8 548.8C682 544.7 709 545.3 736.2 551C763.3 556.7 790.7 567.3 818 567.2C845.3 567 872.7 556 886.3 550.5L900 545L900 601L886.3 601C872.7 601 845.3 601 818 601C790.7 601 763.3 601 736.2 601C709 601 682 601 654.8 601C627.7 601 600.3 601 573 601C545.7 601 518.3 601 491 601C463.7 601 436.3 601 409 601C381.7 601 354.3 601 327 601C299.7 601 272.3 601 245.2 601C218 601 191 601 163.8 601C136.7 601 109.3 601 82 601C54.7 601 27.3 601 13.7 601L0 601Z" fill="#111111"></path></svg>
